<?xml version="1.0" encoding="UTF-8"?>
<svg version="1.1" viewBox="0 0 2048 1006" width="1280" height="1280" xmlns="http://www.w3.org/2000/svg">
<path transform="translate(853,92)" d="m0 0h337l23 2 17 4 15 6 16 9 11 9 5 4v2h2l7 8 11 15 16 28 10 17 12 21 15 25 15 27 9 15 14 25 9 15 17 29 14 24 17 29 8 10 181 1 125 1 4 1-2 9-7 17-8 19-12 29-2 7 1 11 16 40 12 28 2 9-7 3h-303l-11 17-13 22-16 28-10 17-17 29-15 26-16 27-30 52-14 24-15 26-9 13-11 13-12 10-13 8-14 7-16 5-12 2-89 1-227 1h-46l-19-3-18-6-14-8-11-8-13-11-10-10-10-13-13-21-16-29-14-24-16-28-15-26-14-25-12-20-14-25-16-28-14-23-10-16-2-4-7-2h-2l-1 3h-293l-5-2 2-8 16-39 11-28 4-11-1-10-17-40-12-27-1-8 3-1 304-2 9-15 29-49 14-24 15-26 16-28 12-20 10-16 16-28 14-24 15-26 11-18 9-11 11-11 12-9 15-8 21-7 14-3z"/>
<path transform="translate(853,92)" d="m0 0h337l23 2 17 4 15 6 16 9 11 9 5 4v2h2l7 8 11 15 16 28 10 17 12 21 15 25 15 27 9 15 14 25 9 15 17 29 14 24 17 29 8 10 181 1 125 1 4 1-2 9-7 17-8 19-12 29-2 7 1 11 16 40 12 28 2 9-7 3h-303l-11 17-13 22-16 28-10 17-17 29-15 26-16 27-30 52-14 24-15 26-9 13-11 13-12 10-13 8-14 7-16 5-12 2-89 1-227 1h-46l-19-3-18-6-14-8-11-8-13-11-10-10-10-13-13-21-16-29-14-24-16-28-15-26-14-25-12-20-14-25-16-28-14-23-10-16-2-4-7-2h-2l-1 3h-293l-5-2 2-8 16-39 11-28 4-11-1-10-17-40-12-27-1-8 3-1 304-2 9-15 29-49 14-24 15-26 16-28 12-20 10-16 16-28 14-24 15-26 11-18 9-11 11-11 12-9 15-8 21-7 14-3zm-6 18-20 5-18 8-17 10-13 11-10 12-8 13-13 22-13 23-10 17-13 23-12 21-12 20-14 24-13 23-10 16-6 11-14 25-15 26-9 15-15 27-7 22-1 12v17l2 16 7 20 13 25 14 24 13 23 8 13 13 23 14 24 8 13 15 27 10 16 15 27 11 19 9 15 9 16 10 17 8 14 9 13 11 12 13 10 18 10 14 6 22 5h341l16-2 16-5 16-7 15-9 11-9 9-9 11-17 6-11 10-17 13-23 12-21 12-20 15-26 10-17 10-18 13-21 16-28 14-24 12-21 14-24 12-22 6-17 3-16v-25l-5-21-5-12-6-12-12-21-15-26-14-25-9-15-11-19-14-24-10-18-8-13-9-15-13-23-12-21-11-19-14-24-8-14-8-13-7-9-9-9-14-10-21-11-17-6-11-2z" fill="#020100"/>
<path transform="translate(981,357)" d="m0 0 14 1 14 5 10 7 7 5 7-7 14-8 8-2 15-1 16 3 16 8 11 7 12 11 9 9 9 11 11 12 9 8 14 8 10 4 8 2h17l11-4 6-5 2-4v-7l-4-6-3-3h-6l-3 5-2 4-1-5 3-8 5-5h8l8 4 6 7 2 5v15l-4 11-6 9-7 7-13 8-13 5 5 4 3 3-1 5h-4l-4-3h-5l-5 6-1 7-7 26-6 16-6 23-2 13 4-4 7-12 7-11 8-20 12-36 5-7h8l10 4 2 3-7 21-6 12-3 3-1 10-8 28-4 15-2 15-1 3h2l2-5 8-16 8-17 7-14 6-15 3-1-1 9-11 28-8 16-14 29-5 5-6 4h-8l-2-8-3-10v-12l4-16 1-9-6 15-5 6-11 6h-8l-5-3-2-5-1-6v-22l1-8-8 18-16 26-8 14-14 19-10 6-4 2 3 5 7 8v10l-6 8-5 4-5 2h-10l-6-5-2-4v-3l5 1 3 3 4 1 6-3 2-5-1-7h-6l-5-4-1-5 3-8-6-5-3-6-1-5v-14l1-9-22 33-9 8-8 4-9 3h-11l-6-4-3-6v-12l7-30 3-16v-16l-2-15-4 9-19 38-7 10-10 23-5 8-7 16-6 12-8 7-5 2h-5l-5-15-1-5v-11l4-17v-5l-5 13-5 6-10 5-7 1-6-3-2-2-2-12v-17l4-18 6-18 3-12 7-16 9-12 12-5 9-3h9l5 3 1 6-2 3-4-2-1-3h-6l-5 6-8 31-7 19-6 24-1 11 7-10 10-16 8-20 12-36 5-7 4-1 8 2 6 3 2 2-1 5-7 19-6 11-2 1v8l-8 27-5 19-2 16 3-4 11-21 11-23 6-13 2-5h3l10-21 5-11 2-5v-5l-10-9-3-7v-14l4-17 5-13 6-11 7-6 2-1h13l9 3 2 6-2 11-7 20-6 15-4 8v3l9 7 7 8 2 10v12l-11 44-3 18v5h8l10-5 7-7 14-19 9-16 7-13 10-19 4-10 11-13h16l3-5 4-1 8 5 6 6-2 5-7 10-9 22-6 9-7 7-7 8-3 3-3-1 3-7 6-13 6-18 2-4h-2l-2 4-6 11-5 12-8 17-2 7v14l3 5 6-1 9-6 8-9 16-24 14-25 6-9 4-4 7-18 3-13 9-19 7-8 11-5h-3-24l-30-4-28-7-19-7-16-8-13-7-9-7-10-9-5-6-4 2-9 9-17 13-23 12-19 7-23 6-30 5-8 1 1 7v17l-5 30-5 16-5 12-7 12-14 20-10 10-10 8-15 7-9 2-8-1-6-4-4-7-1-9 2-9 5-8 5 1-1 5-3 9v8l3 4 9 1 8-4 9-8 11-14 4-13 4-14 2-9 5-15 6-25 2-14v-14l-1-1h-5l-9 10-24 36-12 23-9 15-9 19-7 12-11 27-4 14-2 18-6 36-2 5-14-2-5-3-1-4v-11l4-27 11-50 8-28 18-54 10-23 10-20 4-3 13 2 7 5 2 4-1 9-9 19-7 16-7 18-3 11 12-23 14-22 18-27 3-5-16-6-13-7-9-9-8-16-1-4v-11l4-11 6-7 4-2h9l7 6 2 6v5h-2l-5-8-3-1-6 5-3 6v7l3 5 6 4 12 3h16l13-4 12-6 14-11 10-11 10-13 9-10 15-12 17-10 16-5z" fill="#ED900C"/>
<path transform="translate(1451,415)" d="m0 0 2 1 181 1 125 1 4 1-2 9-7 17-8 19-12 29-2 7 1 11 16 40 12 28 2 9-7 3h-299l-4-1 2-5 13-23 6-13 4-13 3-16v-30l-4-20-6-16-13-24-7-13z" fill="#EE900C"/>
<path transform="translate(449,417)" d="m0 0h147l-2 5-14 24-8 17-4 17-2 14v18l2 19 4 15 5 12 12 22 5 8-1 2-6-1-1 3h-293l-5-2 2-8 16-39 11-28 4-11-1-10-17-40-12-27-1-8 3-1z" fill="#EE900D"/>
<path transform="translate(827,671)" d="m0 0 396 1-1 5-10 23-2 6 1 6 12 29 1 3-6 1h-391l-1-2 10-23 5-12-3-9-11-25z" fill="#EE900C"/>
<path transform="translate(1007,455)" d="m0 0h13l9 3 2 6-2 11-7 20-6 15-4 8v3l9 7 7 8 2 10v12l-11 44-3 18v5h8l10-5 7-7 14-19 9-16 7-13 10-19 4-10 11-13h16l3-5 4-1 8 5 6 6-2 5-7 10-9 22-6 9-7 7-7 8-3 3-3-1 3-7 6-13 6-18 2-4h-2l-2 4-6 11-5 12-8 17-2 7v14l3 5 6-1 9-6 8-9 16-24 14-25 6-9 4-4 7-18 3-13 9-19 7-8 11-5 10-3h9l6 5-1 5h-4l-4-3h-5l-5 6-1 7-7 26-6 16-6 23-2 13 4-4 7-12 7-11 8-20 12-36 5-7h8l10 4 2 3-7 21-6 12-3 3-1 10-8 28-4 15-2 15-1 3h2l2-5 8-16 8-17 7-14 6-15 3-1-1 9-11 28-8 16-14 29-5 5-6 4h-8l-2-8-3-10v-12l4-16 1-9-6 15-5 6-11 6h-8l-5-3-2-5-1-6v-22l1-8-8 18-16 26-8 14-14 19-10 6-4 2 3 5 7 8v10l-6 8-5 4-5 2h-10l-6-5-2-4v-3l5 1 3 3 4 1 6-3 2-5-1-7h-6l-5-4-1-5 3-8-6-5-3-6-1-5v-14l1-9-22 33-9 8-8 4-9 3h-11l-6-4-3-6v-12l7-30 3-16v-16l-2-15-4 9-19 38-7 10-10 23-5 8-7 16-6 12-8 7-5 2h-5l-5-15-1-5v-11l4-17v-5l-5 13-5 6-10 5-7 1-6-3-2-2-2-12v-17l4-18 6-18 3-12 7-16 9-12 12-5 9-3h9l5 3 1 6-2 3-4-2-1-3h-6l-5 6-8 31-7 19-6 24-1 11 7-10 10-16 8-20 12-36 5-7 4-1 8 2 6 3 2 2-1 5-7 19-6 11-2 1v8l-8 27-5 19-2 16 3-4 11-21 11-23 6-13 2-5h3l10-21 5-11 2-5v-5l-10-9-3-7v-14l4-17 5-13 6-11 7-6z" fill="#FAF7F2"/>
<path transform="translate(847,110)" d="m0 0h353l14 3 16 6 19 10 11 8 10 9 8 9 8 14 6 9 6 11 12 21 11 19 24 42 16 27 8 14 14 24 12 21 12 20 15 27 13 22 15 27 6 12 5 17 2 10v25l-4 19-6 16-16 29-16 27-16 28-15 26-10 17-15 25-7 12-6 11-14 24-10 17-12 21-11 19-8 14-11 18-6 11-8 11-10 10-14 10-17 9-17 6-12 3-11 1h-341l-22-5-18-8-17-10-11-9-7-7-8-11-8-13-9-15-6-11-9-16-9-15-15-26-14-25-11-18-15-27-7-11-12-21-15-26-9-15-12-21-13-23-10-19-8-24-1-12v-20l2-12 7-21 14-25 14-24 12-21 13-23 13-22 10-17 10-18 10-17 12-20 12-21 14-25 12-20 10-18 13-22 7-11 11-13 12-10 19-11 16-7zm5 7-19 5-19 8-12 7-14 10-7 6-6 8-9 15-6 11-13 22-15 26-6 10-6 11-13 22-6 10-6 11-8 14-11 19-13 22-6 11-10 17-11 19-28 48-9 17-5 14-2 10-1 19 1 13 5 16 8 16 11 20 8 13 16 28 28 48 9 16 16 27 10 18 9 15 15 26 12 21 6 10 6 11 15 26 10 17 9 11 10 8 18 11 16 7 17 5 6 1 45 1h275l25-1 21-6 18-8 12-7 9-7 10-9 9-14 12-21 13-22 15-27 16-27 13-23 15-25 9-16 14-24 13-23 14-24 15-26 13-22 9-17 6-16 3-16v-19l-4-17-9-21-16-26-15-26-13-23-10-17-12-21-15-26-14-24-13-22-24-42-15-26-11-19-15-25-9-10-9-8-13-8-17-8-15-5-12-3z" fill="#EE900C"/>
<path transform="translate(1150,172)" d="m0 0 9 1 7 4 2 3v5l-10 12-5 16-2 6-1 13 5 28 1 12 11-8 8-10 6-10h3l-1 6-7 11-10 10-7 5h-2v23l-3 10-8 15-5 5-13 8-9 4-17 4-5-1-4-4v-9l5-10 8-10 8-7 10-9 10-8 2-1v-15l-3-13-14 16-7 7-9 6-9 3-12 2-16 16-10 6-5 2h-10l-7-3-6-8-6-14v-18l5-17 9-21 11-21 11-15 7-3h9l5 1 7-10 3-3 3-1h18l6 3 3 5v19l-2 11-5 7-4 3-1 8 1 3-7 21-9 16-2 4 11-1 11-7 7-7 7-11 4-7-1-14-1-7v-12l3-13 8-16 7-11z" fill="#FAF6F1"/>
<path transform="translate(870,465)" d="m0 0 7 1 9 5 7 6 2 8v17l-5 30-5 16-5 12-7 12-14 20-10 10-10 8-15 7-9 2-8-1-6-4-4-7-1-9 2-9 5-8 5 1-1 5-3 9v8l3 4 9 1 8-4 9-8 11-14 4-13 4-14 2-9 5-15 6-25 2-14v-14l-1-1h-5l-9 10-24 36-12 23-9 15-9 19-7 12-11 27-4 14-2 18-6 36-2 5-14-2-5-3-1-4v-11l4-27 11-50 8-28 18-54 10-23 10-20 4-3 13 2 7 5 2 4-1 9-9 19-7 16-7 18-3 11 12-23 14-22 18-27 6-7 9-6z" fill="#FBF9F5"/>
<path transform="translate(959,165)" d="m0 0h3v27l-3 48-1 7-5 3-3 12-5 29-1 16 16 5 21 4 24 3h35l22-3 25-6 6-1-2 5-8 13-9 11-4 3-8 2-11 1-25 1h-22l-24-1-25-3-15-4-1 9-5 18-4 1-1-1 1-31-8-7v-11l5-10h6l1-24 6-87 1-16 6-7z" fill="#FBF9F6"/>
<path transform="translate(1194,475)" d="m0 0h9l6 5-1 5h-4l-4-3h-5l-5 6-1 7-7 26-6 16-6 23-2 13 4-4 7-12 7-11 8-20 12-36 5-7h8l10 4 2 3-7 21-6 12-3 3-1 10-8 28-4 15-2 15-1 3h2l2-5 8-16 8-17 7-14 6-15 3-1-1 9-11 28-8 16-14 29-5 5-6 4h-8l-2-8-3-10v-12l4-16 1-9-6 15-5 6-11 6h-8l-5-3-2-5-1-6v-22l1-10 9-23 3-13 9-19 7-8 11-5z" fill="#FBF8F3"/>
<path transform="translate(1263,447)" d="m0 0 10 1 6 4 3 5-1 5-9 13-4 16-2 11v13l5 21 4 19 2 2 11-11 8-13 4-8h4l-3 9-6 11-9 10-9 8 1 25-2 10-5 12-5 9-8 7-16 10-18 6h-8l-4-5-1-2 1-9 8-15 9-11 15-15 5-6 6-4v-14l-8-25-5-26v-20l6-18 10-19z" fill="#F9F5F0"/>
<path transform="translate(1025,770)" d="m0 0 2 2 8 21 26 2v2l-11 8-8 7 4 18 1 7-10-5-10-7-5 1-15 10-4 1 2-9 3-12v-5l-10-8-9-6v-2l26-2 5-12z" fill="#EE900C"/>
<path transform="translate(1101,190)" d="m0 0h5l4 5-1 14-7 25-10 25-8 15-4 2-3-4-1-3v-16l3-14 6-16 12-22 3-10z"/>
<path transform="translate(1159,778)" d="m0 0h3l5 15 1 1 19 2 1 2-11 7-4 2 3 14 1 6-5-1-11-7-5 2-9 6h-3l1-7 2-11-10-9-4-4 20-2 5-15z" fill="#EE900C"/>
<path transform="translate(948,778)" d="m0 0 4 1 5 15 21 2-4 4-9 7-2 2 1 7 3 11-5-1-11-7-5 2-9 6-4-1 4-17-9-8-5-3v-2l20-2 3-9z" fill="#EE900C"/>
<path transform="translate(887,778)" d="m0 0h3l5 15 1 1 20 2-5 5-9 7 1 9 3 11-5-2-10-6h-6l-12 8h-2l3-11 2-9-4-2-11-9v-1l19-2 5-10z" fill="#EE900C"/>
<path transform="translate(1097,777)" d="m0 0 3 2 5 14 1 1 19 2v2l-6 4-8 7 4 18-5-1-9-6h-6l-12 8h-1l1-9 2-6v-6l-4-2-8-6-3-3 22-2 2-9z" fill="#EE900C"/>
<path transform="translate(1576,479)" d="m0 0h9l5 3 1 1v41l-4 4-2 1h-9l-5-4-1-3v-34l2-6z"/>
<path transform="translate(482,479)" d="m0 0h12l6 2 2 2 1 35-1 8-7 3h-12l-1-1z"/>
<path transform="translate(373,479)" d="m0 0h10l7 2 2 2v43l-3 2-5 1h-10l-2-1v-48z"/>
<path transform="translate(1255,581)" d="m0 0h2l-2 18-6 15-9 10-9 8-10 6-4-2v-7l8-16 8-11 12-13 8-7z"/>
<path transform="translate(1058,244)" d="m0 0 2 1v15l2 13 4 7v2l4 2 4 3-2 4-7 8-5 4-4 2h-6l-4-4-2-5v-14l4-15 8-19z"/>
<path transform="translate(993,686)" d="m0 0h7l6 2 2 5v11l-3 1 3 7v14l-3 4-6 1h-8l-2-1v-43z"/>
<path transform="translate(886,686)" d="m0 0h9l6 2 2 2 1 6v8l-3 1 2 5 1 6v8l-2 5-6 2-11-1-1-31v-8z"/>
<path transform="translate(1136,291)" d="m0 0h1v7l-3 11-6 12-5 5-8 7-12 7-5-1v-6l9-16 10-11 8-7 8-6z"/>
<path transform="translate(1152,686)" d="m0 0h7l5 2 1 3v39l-5 1-2-1v-15h-6v15h-7l1-42z"/>
<path transform="translate(1061,686)" d="m0 0 9 1 3 3v40h-6v-16l-7 1v15h-6v-41l2-2z"/>
<path transform="translate(1093,686)" d="m0 0h8l6 2 1 4v18l-3 1 4 19-6 1-2-6-2-11-4-1v17h-6v-43z"/>
<path transform="translate(960,686)" d="m0 0 11 1 3 5v16l-3 4 3 18-1 1h-5l-1-1-2-16-4-1 1 17-1 1h-6l-1-4 1-40z"/>
<path transform="translate(926,686)" d="m0 0h7l5 3v41h-6v-15l-7-1v16h-6l1-41 2-2z"/>
<path transform="translate(450,479)" d="m0 0h8l5 3 1 2v7l-2 2-4-1-3-6h-4l1 12 8 5 4 3v17l-4 5-2 1h-7l-6-3-1-2v-7l2-1 4 2 1 4h5l1-2v-7l-3-5-8-5-3-5v-9l2-7z"/>
<path transform="translate(1537,479)" d="m0 0h9l4 2 2 5v15l-7 8-4 5-1 8 11 1 1 5-2 1h-17l-1-7 1-11 7-8 4-4v-13l-5 1v6l-5 1-2-1v-9z"/>
<path transform="translate(1639,479)" d="m0 0h17l2 1v5l-12 1-1 13h8l4 2 2 6v13l-3 7-5 2-8-1-4-3v-8h5l3 5h3l1-2v-13l-10-1-2-1z"/>
<path transform="translate(521,479)" d="m0 0h16l1 3-1 3-2 1h-7v14l8 1 1 4-1 1-7 1-1 15 8 1 1 5-1 1h-14l-1-1z"/>
<path transform="translate(411,479)" d="m0 0h15l1 5-1 1-8 1v14l8 1-1 5-7 1v15l9 1-1 5-1 1h-13l-2-1v-25z"/>
<path transform="translate(1017,465)" d="m0 0 5 1 2 4-1 8-6 18-7 16-3 4-3-1v-14l11-33z"/>
<path transform="translate(1032,686)" d="m0 0 8 1v4l-2 1h-8v12l8 1-1 5h-7v15h9l1 5-2 1h-12l-2-1v-43z"/>
<path transform="translate(1616,480)" d="m0 0 4 1v47l-1 1h-5l-1-1v-39h-5l-1-2 5-5z"/>
<path transform="translate(489,485)" d="m0 0 7 1 1 1v29l-1 6-7 1-1-1v-36z" fill="#EE900C"/>
<path transform="translate(380,485)" d="m0 0 6 1v36l-1 1h-6l-1-1v-36z" fill="#EE900C"/>
<path transform="translate(1124,687)" d="m0 0h6v43l-6 1-1-4v-39z"/>
<path transform="translate(1579,485)" d="m0 0 5 1v36l-5 1-2-3 1-34z" fill="#EE900C"/>
<path transform="translate(1020,566)" d="m0 0 1 4-5 22-4 17-2 13-3-1v-8l4-18 5-17 3-10z"/>
<path transform="translate(925,692)" d="m0 0h7l1 1v15l-1 1h-7z" fill="#EE900C"/>
<path transform="translate(1152,692)" d="m0 0h7v16l-1 1h-6l-1-1v-15z" fill="#EE900C"/>
<path transform="translate(1060,692)" d="m0 0h7v16l-1 1h-6z" fill="#EE900C"/>
<path transform="translate(1095,692)" d="m0 0h6l1 1v13l-1 1h-6z" fill="#EE900C"/>
<path transform="translate(995,710)" d="m0 0h6l1 2v9l-1 4h-6z" fill="#EE900C"/>
<path transform="translate(891,710)" d="m0 0h6l1 10-1 5h-6z" fill="#EE900C"/>
<path transform="translate(929,610)" d="m0 0h3l-1 6-1 5 2 3-1 5-6 2v-9l3-11z"/>
<path transform="translate(961,692)" d="m0 0h6v15h-6z" fill="#EE900C"/>
<path transform="translate(1183,573)" d="m0 0 6 5-2 17-3 1-1-8z"/>
<path transform="translate(995,692)" d="m0 0h6v12h-6z" fill="#EE900C"/>
<path transform="translate(891,692)" d="m0 0h6v12h-6z" fill="#EE900C"/>
<path transform="translate(1200,557)" d="m0 0 1 3-5 21-3 15h-1v-9l5-24z"/>
<path transform="translate(864,557)" d="m0 0 1 2-6 12-5 5h-2l2-5 7-12z"/>
<path transform="translate(1260,549)" d="m0 0h4l3 10-4-1-1-2-6-1 3-5z"/>
<path transform="translate(1142,263)" d="m0 0h4l2 6-1 4-3-4-4-1v-4z"/>
<path transform="translate(1e3 610)" d="m0 0h1l1 18-3 1v-13z"/>
<path transform="translate(933,598)" d="m0 0h1v6l-8 5 2-4z"/>
<path transform="translate(1188,563)" d="m0 0h1l-1 8-3 1-1-5z"/>
<path transform="translate(934,315)" d="m0 0h3l-2 5-5 1 1-4z"/>
<path transform="translate(1079,224)" d="m0 0h2l-1 6-3 5-1-2 2-8z"/>
</svg>
